<svg id="my-svg" width="100%" xmlns="http://www.w3.org/2000/svg" xmlns:xlink="http://www.w3.org/1999/xlink" class="flowchart" style="max-width: 760.414px; background-color: transparent;" viewBox="0 0 760.4140625 1036.671875" role="graphics-document document" aria-roledescription="flowchart-v2"><style>#my-svg{font-family:"trebuchet ms",verdana,arial,sans-serif;font-size:18px;fill:#1a1a2e;}@keyframes edge-animation-frame{from{stroke-dashoffset:0;}}@keyframes dash{to{stroke-dashoffset:0;}}#my-svg .edge-animation-slow{stroke-dasharray:9,5!important;stroke-dashoffset:900;animation:dash 50s linear infinite;stroke-linecap:round;}#my-svg .edge-animation-fast{stroke-dasharray:9,5!important;stroke-dashoffset:900;animation:dash 20s linear infinite;stroke-linecap:round;}#my-svg .error-icon{fill:hsl(44, 100%, 100%);}#my-svg .error-text{fill:#000000;stroke:#000000;}#my-svg .edge-thickness-normal{stroke-width:1px;}#my-svg .edge-thickness-thick{stroke-width:3.5px;}#my-svg .edge-pattern-solid{stroke-dasharray:0;}#my-svg .edge-thickness-invisible{stroke-width:0;fill:none;}#my-svg .edge-pattern-dashed{stroke-dasharray:3;}#my-svg .edge-pattern-dotted{stroke-dasharray:2;}#my-svg .marker{fill:#4a6fa5;stroke:#4a6fa5;}#my-svg .marker.cross{stroke:#4a6fa5;}#my-svg svg{font-family:"trebuchet ms",verdana,arial,sans-serif;font-size:18px;}#my-svg p{margin:0;}#my-svg .label{font-family:"trebuchet ms",verdana,arial,sans-serif;color:#1a1a2e;}#my-svg .cluster-label text{fill:#000000;}#my-svg .cluster-label span{color:#000000;}#my-svg .cluster-label span p{background-color:transparent;}#my-svg .label text,#my-svg span{fill:#1a1a2e;color:#1a1a2e;}#my-svg .node rect,#my-svg .node circle,#my-svg .node ellipse,#my-svg .node polygon,#my-svg .node path{fill:#f0f4ff;stroke:#4a6fa5;stroke-width:1px;}#my-svg .rough-node .label text,#my-svg .node .label text,#my-svg .image-shape .label,#my-svg .icon-shape .label{text-anchor:middle;}#my-svg .node .katex path{fill:#000;stroke:#000;stroke-width:1px;}#my-svg .rough-node .label,#my-svg .node .label,#my-svg .image-shape .label,#my-svg .icon-shape .label{text-align:center;}#my-svg .node.clickable{cursor:pointer;}#my-svg .root .anchor path{fill:#4a6fa5!important;stroke-width:0;stroke:#4a6fa5;}#my-svg .arrowheadPath{fill:#0b0b0b;}#my-svg .edgePath .path{stroke:#4a6fa5;stroke-width:2.0px;}#my-svg .flowchart-link{stroke:#4a6fa5;fill:none;}#my-svg .edgeLabel{background-color:hsl(104, 100%, 97.0588235294%);text-align:center;}#my-svg .edgeLabel p{background-color:hsl(104, 100%, 97.0588235294%);}#my-svg .edgeLabel rect{opacity:0.5;background-color:hsl(104, 100%, 97.0588235294%);fill:hsl(104, 100%, 97.0588235294%);}#my-svg .labelBkg{background-color:rgba(244, 255, 239.9999999999, 0.5);}#my-svg .cluster rect{fill:hsl(44, 100%, 100%);stroke:hsl(44, 60%, 90%);stroke-width:1px;}#my-svg .cluster text{fill:#000000;}#my-svg .cluster span{color:#000000;}#my-svg div.mermaidTooltip{position:absolute;text-align:center;max-width:200px;padding:2px;font-family:"trebuchet ms",verdana,arial,sans-serif;font-size:12px;background:hsl(44, 100%, 100%);border:1px solid hsl(44, 60%, 90%);border-radius:2px;pointer-events:none;z-index:100;}#my-svg .flowchartTitleText{text-anchor:middle;font-size:18px;fill:#1a1a2e;}#my-svg rect.text{fill:none;stroke-width:0;}#my-svg .icon-shape,#my-svg .image-shape{background-color:hsl(104, 100%, 97.0588235294%);text-align:center;}#my-svg .icon-shape p,#my-svg .image-shape p{background-color:hsl(104, 100%, 97.0588235294%);padding:2px;}#my-svg .icon-shape rect,#my-svg .image-shape rect{opacity:0.5;background-color:hsl(104, 100%, 97.0588235294%);fill:hsl(104, 100%, 97.0588235294%);}#my-svg .label-icon{display:inline-block;height:1em;overflow:visible;vertical-align:-0.125em;}#my-svg .node .label-icon path{fill:currentColor;stroke:revert;stroke-width:revert;}#my-svg :root{--mermaid-font-family:"trebuchet ms",verdana,arial,sans-serif;}#my-svg .input&gt;*{fill:#e8eaf6!important;stroke:#3f51b5!important;stroke-width:2px!important;color:#1a237e!important;}#my-svg .input span{fill:#e8eaf6!important;stroke:#3f51b5!important;stroke-width:2px!important;color:#1a237e!important;}#my-svg .input tspan{fill:#1a237e!important;}#my-svg .green&gt;*{fill:#e8f5e9!important;stroke:#388e3c!important;stroke-width:2px!important;color:#1b5e20!important;}#my-svg .green span{fill:#e8f5e9!important;stroke:#388e3c!important;stroke-width:2px!important;color:#1b5e20!important;}#my-svg .green tspan{fill:#1b5e20!important;}#my-svg .orange&gt;*{fill:#fff8e1!important;stroke:#ef6c00!important;stroke-width:2px!important;color:#e65100!important;}#my-svg .orange span{fill:#fff8e1!important;stroke:#ef6c00!important;stroke-width:2px!important;color:#e65100!important;}#my-svg .orange tspan{fill:#e65100!important;}#my-svg .blue&gt;*{fill:#e3f2fd!important;stroke:#1565c0!important;stroke-width:2px!important;color:#0d47a1!important;}#my-svg .blue span{fill:#e3f2fd!important;stroke:#1565c0!important;stroke-width:2px!important;color:#0d47a1!important;}#my-svg .blue tspan{fill:#0d47a1!important;}#my-svg .gate&gt;*{fill:#f3e5f5!important;stroke:#7b1fa2!important;stroke-width:2px!important;color:#4a148c!important;}#my-svg .gate span{fill:#f3e5f5!important;stroke:#7b1fa2!important;stroke-width:2px!important;color:#4a148c!important;}#my-svg .gate tspan{fill:#4a148c!important;}#my-svg .red&gt;*{fill:#fce4ec!important;stroke:#c62828!important;stroke-width:2px!important;color:#b71c1c!important;}#my-svg .red span{fill:#fce4ec!important;stroke:#c62828!important;stroke-width:2px!important;color:#b71c1c!important;}#my-svg .red tspan{fill:#b71c1c!important;}</style><g><marker id="my-svg_flowchart-v2-pointEnd" class="marker flowchart-v2" viewBox="0 0 10 10" refX="5" refY="5" markerUnits="userSpaceOnUse" markerWidth="8" markerHeight="8" orient="auto"><path d="M 0 0 L 10 5 L 0 10 z" class="arrowMarkerPath" style="stroke-width: 1; stroke-dasharray: 1, 0;"/></marker><marker id="my-svg_flowchart-v2-pointStart" class="marker flowchart-v2" viewBox="0 0 10 10" refX="4.5" refY="5" markerUnits="userSpaceOnUse" markerWidth="8" markerHeight="8" orient="auto"><path d="M 0 5 L 10 10 L 10 0 z" class="arrowMarkerPath" style="stroke-width: 1; stroke-dasharray: 1, 0;"/></marker><marker id="my-svg_flowchart-v2-circleEnd" class="marker flowchart-v2" viewBox="0 0 10 10" refX="11" refY="5" markerUnits="userSpaceOnUse" markerWidth="11" markerHeight="11" orient="auto"><circle cx="5" cy="5" r="5" class="arrowMarkerPath" style="stroke-width: 1; stroke-dasharray: 1, 0;"/></marker><marker id="my-svg_flowchart-v2-circleStart" class="marker flowchart-v2" viewBox="0 0 10 10" refX="-1" refY="5" markerUnits="userSpaceOnUse" markerWidth="11" markerHeight="11" orient="auto"><circle cx="5" cy="5" r="5" class="arrowMarkerPath" style="stroke-width: 1; stroke-dasharray: 1, 0;"/></marker><marker id="my-svg_flowchart-v2-crossEnd" class="marker cross flowchart-v2" viewBox="0 0 11 11" refX="12" refY="5.2" markerUnits="userSpaceOnUse" markerWidth="11" markerHeight="11" orient="auto"><path d="M 1,1 l 9,9 M 10,1 l -9,9" class="arrowMarkerPath" style="stroke-width: 2; stroke-dasharray: 1, 0;"/></marker><marker id="my-svg_flowchart-v2-crossStart" class="marker cross flowchart-v2" viewBox="0 0 11 11" refX="-1" refY="5.2" markerUnits="userSpaceOnUse" markerWidth="11" markerHeight="11" orient="auto"><path d="M 1,1 l 9,9 M 10,1 l -9,9" class="arrowMarkerPath" style="stroke-width: 2; stroke-dasharray: 1, 0;"/></marker><g class="root"><g class="clusters"/><g class="edgePaths"><path d="M344.484,50.5L344.401,54.583C344.318,58.667,344.151,66.833,344.068,74.417C343.984,82,343.984,89,343.984,92.5L343.984,96" id="L_Input_Mode_0" class="edge-thickness-normal edge-pattern-solid edge-thickness-normal edge-pattern-solid flowchart-link" style=";" data-edge="true" data-et="edge" data-id="L_Input_Mode_0" data-points="W3sieCI6MzQ0LjQ4NDM3NSwieSI6NTAuNTAwMDAwMDAwMDAwMDN9LHsieCI6MzQzLjk4NDM3NSwieSI6NzV9LHsieCI6MzQzLjk4NDM3NSwieSI6MTAwfV0=" marker-end="url(#my-svg_flowchart-v2-pointEnd)"/><path d="M279.311,236.733L248.446,253.929C217.58,271.124,155.849,305.515,124.983,328.461C94.117,351.406,94.117,362.906,94.117,368.656L94.117,374.406" id="L_Mode_A_0" class="edge-thickness-normal edge-pattern-solid edge-thickness-normal edge-pattern-solid flowchart-link" style=";" data-edge="true" data-et="edge" data-id="L_Mode_A_0" data-points="W3sieCI6Mjc5LjMxMTIxNDg4NTI0MzI2LCJ5IjoyMzYuNzMzMDg5ODg1MjQzMjZ9LHsieCI6OTQuMTE3MTg3NSwieSI6MzM5LjkwNjI1fSx7IngiOjk0LjExNzE4NzUsInkiOjM3OC40MDYyNX1d" marker-end="url(#my-svg_flowchart-v2-pointEnd)"/><path d="M343.984,301.406L343.984,307.823C343.984,314.24,343.984,327.073,343.984,339.24C343.984,351.406,343.984,362.906,343.984,368.656L343.984,374.406" id="L_Mode_B_0" class="edge-thickness-normal edge-pattern-solid edge-thickness-normal edge-pattern-solid flowchart-link" style=";" data-edge="true" data-et="edge" data-id="L_Mode_B_0" data-points="W3sieCI6MzQzLjk4NDM3NSwieSI6MzAxLjQwNjI1fSx7IngiOjM0My45ODQzNzUsInkiOjMzOS45MDYyNX0seyJ4IjozNDMuOTg0Mzc1LCJ5IjozNzguNDA2MjV9XQ==" marker-end="url(#my-svg_flowchart-v2-pointEnd)"/><path d="M405.983,239.407L432.814,256.157C459.645,272.907,513.307,306.407,540.138,331.156C566.969,355.906,566.969,371.906,566.969,379.906L566.969,387.906" id="L_Mode_C_0" class="edge-thickness-normal edge-pattern-solid edge-thickness-normal edge-pattern-solid flowchart-link" style=";" data-edge="true" data-et="edge" data-id="L_Mode_C_0" data-points="W3sieCI6NDA1Ljk4MzI2NjE1MDc3NjU2LCJ5IjoyMzkuNDA3MzU4ODQ5MjIzNDd9LHsieCI6NTY2Ljk2ODc1LCJ5IjozMzkuOTA2MjV9LHsieCI6NTY2Ljk2ODc1LCJ5IjozOTEuOTA2MjV9XQ==" marker-end="url(#my-svg_flowchart-v2-pointEnd)"/><path d="M566.969,448.906L566.969,455.323C566.969,461.74,566.969,474.573,566.969,484.49C566.969,494.406,566.969,501.406,566.969,504.906L566.969,508.406" id="L_C_P_0" class="edge-thickness-normal edge-pattern-solid edge-thickness-normal edge-pattern-solid flowchart-link" style=";" data-edge="true" data-et="edge" data-id="L_C_P_0" data-points="W3sieCI6NTY2Ljk2ODc1LCJ5Ijo0NDguOTA2MjV9LHsieCI6NTY2Ljk2ODc1LCJ5Ijo0ODcuNDA2MjV9LHsieCI6NTY2Ljk2ODc1LCJ5Ijo1MTIuNDA2MjV9XQ==" marker-end="url(#my-svg_flowchart-v2-pointEnd)"/><path d="M566.969,569.406L566.969,573.573C566.969,577.74,566.969,586.073,566.969,593.74C566.969,601.406,566.969,608.406,566.969,611.906L566.969,615.406" id="L_P_Risk_0" class="edge-thickness-normal edge-pattern-solid edge-thickness-normal edge-pattern-solid flowchart-link" style=";" data-edge="true" data-et="edge" data-id="L_P_Risk_0" data-points="W3sieCI6NTY2Ljk2ODc1LCJ5Ijo1NjkuNDA2MjV9LHsieCI6NTY2Ljk2ODc1LCJ5Ijo1OTQuNDA2MjV9LHsieCI6NTY2Ljk2ODc1LCJ5Ijo2MTkuNDA2MjV9XQ==" marker-end="url(#my-svg_flowchart-v2-pointEnd)"/><path d="M536.46,703.163L523.281,714.665C510.101,726.166,483.742,749.169,470.562,768.67C457.383,788.172,457.383,804.172,457.383,812.172L457.383,820.172" id="L_Risk_OK_0" class="edge-thickness-normal edge-pattern-solid edge-thickness-normal edge-pattern-solid flowchart-link" style=";" data-edge="true" data-et="edge" data-id="L_Risk_OK_0" data-points="W3sieCI6NTM2LjQ2MDA3MTcyNDYyNjksInkiOjcwMy4xNjMxOTY3MjQ2MjY5fSx7IngiOjQ1Ny4zODI4MTI1LCJ5Ijo3NzIuMTcxODc1fSx7IngiOjQ1Ny4zODI4MTI1LCJ5Ijo4MjQuMTcxODc1fV0=" marker-end="url(#my-svg_flowchart-v2-pointEnd)"/><path d="M597.477,703.163L610.657,714.665C623.837,726.166,650.196,749.169,663.375,766.42C676.555,783.672,676.555,795.172,676.555,800.922L676.555,806.672" id="L_Risk_Block_0" class="edge-thickness-normal edge-pattern-solid edge-thickness-normal edge-pattern-solid flowchart-link" style=";" data-edge="true" data-et="edge" data-id="L_Risk_Block_0" data-points="W3sieCI6NTk3LjQ3NzQyODI3NTM3MzEsInkiOjcwMy4xNjMxOTY3MjQ2MjY5fSx7IngiOjY3Ni41NTQ2ODc1LCJ5Ijo3NzIuMTcxODc1fSx7IngiOjY3Ni41NTQ2ODc1LCJ5Ijo4MTAuNjcxODc1fV0=" marker-end="url(#my-svg_flowchart-v2-pointEnd)"/><path d="M457.383,881.172L457.383,887.589C457.383,894.005,457.383,906.839,463.629,917.074C469.875,927.31,482.368,934.948,488.614,938.766L494.86,942.585" id="L_OK_Do_0" class="edge-thickness-normal edge-pattern-solid edge-thickness-normal edge-pattern-solid flowchart-link" style=";" data-edge="true" data-et="edge" data-id="L_OK_Do_0" data-points="W3sieCI6NDU3LjM4MjgxMjUsInkiOjg4MS4xNzE4NzV9LHsieCI6NDU3LjM4MjgxMjUsInkiOjkxOS42NzE4NzV9LHsieCI6NDk4LjI3MzA4NzY4NjU2NzIsInkiOjk0NC42NzE4NzV9XQ==" marker-end="url(#my-svg_flowchart-v2-pointEnd)"/><path d="M676.555,894.672L676.555,898.839C676.555,903.005,676.555,911.339,670.308,919.324C664.062,927.31,651.57,934.948,645.323,938.766L639.077,942.585" id="L_Block_Do_0" class="edge-thickness-normal edge-pattern-solid edge-thickness-normal edge-pattern-solid flowchart-link" style=";" data-edge="true" data-et="edge" data-id="L_Block_Do_0" data-points="W3sieCI6Njc2LjU1NDY4NzUsInkiOjg5NC42NzE4NzV9LHsieCI6Njc2LjU1NDY4NzUsInkiOjkxOS42NzE4NzV9LHsieCI6NjM1LjY2NDQxMjMxMzQzMjksInkiOjk0NC42NzE4NzV9XQ==" marker-end="url(#my-svg_flowchart-v2-pointEnd)"/></g><g class="edgeLabels"><g class="edgeLabel"><g class="label" data-id="L_Input_Mode_0" transform="translate(0, 0)"><foreignObject width="0" height="0"><div xmlns="http://www.w3.org/1999/xhtml" class="labelBkg" style="display: table-cell; white-space: nowrap; line-height: 1.5; max-width: 200px; text-align: center;"><span class="edgeLabel"></span></div></foreignObject></g></g><g class="edgeLabel" transform="translate(94.1171875, 339.90625)"><g class="label" data-id="L_Mode_A_0" transform="translate(-18.6015625, -13.5)"><foreignObject width="37.203125" height="27"><div xmlns="http://www.w3.org/1999/xhtml" class="labelBkg" style="display: table-cell; white-space: nowrap; line-height: 1.5; max-width: 200px; text-align: center;"><span class="edgeLabel"><p>Chat</p></span></div></foreignObject></g></g><g class="edgeLabel" transform="translate(343.984375, 339.90625)"><g class="label" data-id="L_Mode_B_0" transform="translate(-37.15625, -13.5)"><foreignObject width="74.3125" height="27"><div xmlns="http://www.w3.org/1999/xhtml" class="labelBkg" style="display: table-cell; white-space: nowrap; line-height: 1.5; max-width: 200px; text-align: center;"><span class="edgeLabel"><p>System Q</p></span></div></foreignObject></g></g><g class="edgeLabel" transform="translate(566.96875, 339.90625)"><g class="label" data-id="L_Mode_C_0" transform="translate(-47.875, -13.5)"><foreignObject width="95.75" height="27"><div xmlns="http://www.w3.org/1999/xhtml" class="labelBkg" style="display: table-cell; white-space: nowrap; line-height: 1.5; max-width: 200px; text-align: center;"><span class="edgeLabel"><p>Write / Edit</p></span></div></foreignObject></g></g><g class="edgeLabel"><g class="label" data-id="L_C_P_0" transform="translate(0, 0)"><foreignObject width="0" height="0"><div xmlns="http://www.w3.org/1999/xhtml" class="labelBkg" style="display: table-cell; white-space: nowrap; line-height: 1.5; max-width: 200px; text-align: center;"><span class="edgeLabel"></span></div></foreignObject></g></g><g class="edgeLabel"><g class="label" data-id="L_P_Risk_0" transform="translate(0, 0)"><foreignObject width="0" height="0"><div xmlns="http://www.w3.org/1999/xhtml" class="labelBkg" style="display: table-cell; white-space: nowrap; line-height: 1.5; max-width: 200px; text-align: center;"><span class="edgeLabel"></span></div></foreignObject></g></g><g class="edgeLabel" transform="translate(457.3828125, 772.171875)"><g class="label" data-id="L_Risk_OK_0" transform="translate(-48.7421875, -13.5)"><foreignObject width="97.484375" height="27"><div xmlns="http://www.w3.org/1999/xhtml" class="labelBkg" style="display: table-cell; white-space: nowrap; line-height: 1.5; max-width: 200px; text-align: center;"><span class="edgeLabel"><p>Normal files</p></span></div></foreignObject></g></g><g class="edgeLabel" transform="translate(676.5546875, 772.171875)"><g class="label" data-id="L_Risk_Block_0" transform="translate(-41.96875, -13.5)"><foreignObject width="83.9375" height="27"><div xmlns="http://www.w3.org/1999/xhtml" class="labelBkg" style="display: table-cell; white-space: nowrap; line-height: 1.5; max-width: 200px; text-align: center;"><span class="edgeLabel"><p>Brain Docs</p></span></div></foreignObject></g></g><g class="edgeLabel"><g class="label" data-id="L_OK_Do_0" transform="translate(0, 0)"><foreignObject width="0" height="0"><div xmlns="http://www.w3.org/1999/xhtml" class="labelBkg" style="display: table-cell; white-space: nowrap; line-height: 1.5; max-width: 200px; text-align: center;"><span class="edgeLabel"></span></div></foreignObject></g></g><g class="edgeLabel"><g class="label" data-id="L_Block_Do_0" transform="translate(0, 0)"><foreignObject width="0" height="0"><div xmlns="http://www.w3.org/1999/xhtml" class="labelBkg" style="display: table-cell; white-space: nowrap; line-height: 1.5; max-width: 200px; text-align: center;"><span class="edgeLabel"></span></div></foreignObject></g></g></g><g class="nodes"><g class="node default input" id="flowchart-Input-0" transform="translate(343.984375, 29)"><g class="basic label-container outer-path"><path d="M-33.2734375 -21 C-9.093944481012002 -21, 15.085548537975995 -21, 33.2734375 -21 C33.2734375 -21, 33.2734375 -21, 33.2734375 -21 C33.65738695502106 -20.98768748828975, 34.04133641004213 -20.975374976579506, 34.61891211959497 -20.956853247757063 C34.96847693801955 -20.923131150136847, 35.31804175644414 -20.88940905251663, 35.95885789537462 -20.82759029028817 C36.397566318174064 -20.756663314724587, 36.8362747409735 -20.685736339161007, 37.28776870272881 -20.612742296812375 C37.761685994852705 -20.504573767484445, 38.2356032869766 -20.396405238156515, 38.60018376209965 -20.31319212381962 C39.00856615519703 -20.19198637319124, 39.41694854829442 -20.07078062256286, 39.890710078496035 -19.93017068722404 C40.377664165160304 -19.750967081977358, 40.864618251824574 -19.571763476730673, 41.154044602466854 -19.465251904266456 C41.415768457531094 -19.34939451739183, 41.677492312595334 -19.233537130517206, 42.38499602146872 -18.9203462259508 C42.66335158086076 -18.775128308911217, 42.94170714025281 -18.629910391871636, 43.57850609208269 -18.29769278659118 C43.8955669295258 -18.105488643676868, 44.21262776696891 -17.913284500762554, 44.72967042542152 -17.599850202728653 C45.00097978600247 -17.41059653758031, 45.27228914658342 -17.22134287243197, 45.83375864031554 -16.82968605922709 C46.22418879185535 -16.518328403156765, 46.614618943395165 -16.206970747086437, 46.886233801463554 -15.990365125751826 C47.245098352698754 -15.664453835355731, 47.603962903933954 -15.338542544959637, 47.882771062673214 -15.08533635205228 C48.250851566500884 -14.70526301187883, 48.61893207032856 -14.325189671705381, 48.81927543858163 -14.118318695487657 C49.01185891714641 -13.892099183255095, 49.20444239571119 -13.665879671022534, 49.69189863182862 -13.093285839033406 C49.93940972609902 -12.761643521435634, 50.186920820369416 -12.430001203837861, 50.497054846536074 -12.014449862565568 C50.778609568323425 -11.581906201871272, 51.06016429011078 -11.149362541176975, 51.23143552311227 -10.886243934521028 C51.45040520233754 -10.497441095972162, 51.669374881562824 -10.108638257423294, 51.892022933833005 -9.713304095057541 C52.058722958625275 -9.36714792676726, 52.22542298341754 -9.020991758476976, 52.476102583332064 -8.500450205570274 C52.66983728052224 -8.021921757904988, 52.863571977712404 -7.5433933102397, 52.98127436304496 -7.25266614284747 C53.13180504170434 -6.799291722531996, 53.282335720363726 -6.345917302216521, 53.40546241376987 -5.975079319251687 C53.508801983174514 -5.581000753459088, 53.61214155257915 -5.18692218766649, 53.74692365581829 -4.672939613082605 C53.8271781908768 -4.260849537359155, 53.90743272593531 -3.8487594616357055, 54.00425495170345 -3.3515977957009717 C54.04887985559154 -3.0054958533289606, 54.09350475947963 -2.6593939109569495, 54.17639887193316 -2.016483544061321 C54.208011538683884 -1.524090742133515, 54.2396242054346 -1.0316979402057092, 54.262648040214444 -0.6730831290047585 C54.262648040214444 -0.21382998923173818, 54.262648040214444 0.24542315054128216, 54.262648040214444 0.6730831290047534 C54.23160054591513 1.156672913802897, 54.20055305161581 1.6402626986010407, 54.17639887193316 2.0164835440613067 C54.13056930373401 2.3719286249420533, 54.08473973553486 2.7273737058228003, 54.00425495170346 3.351597795700957 C53.946355533201825 3.648899072660397, 53.8884561147002 3.9462003496198363, 53.74692365581829 4.6729396130826 C53.66368777899127 4.990354086081271, 53.58045190216424 5.307768559079942, 53.405462413769875 5.975079319251673 C53.26385776605488 6.401569956532558, 53.122253118339884 6.8280605938134435, 52.981274363044975 7.252666142847456 C52.85919196212266 7.554212033428227, 52.73710956120034 7.855757924008997, 52.476102583332064 8.500450205570269 C52.293954422685246 8.878684758499679, 52.11180626203843 9.256919311429089, 51.892022933833005 9.713304095057536 C51.693159053698395 10.06640705138799, 51.49429517356379 10.419510007718445, 51.23143552311227 10.886243934521024 C51.031146165501696 11.193942173034023, 50.830856807891124 11.50164041154702, 50.497054846536074 12.014449862565556 C50.26184611609352 12.329608133402413, 50.02663738565098 12.64476640423927, 49.69189863182863 13.0932858390334 C49.40796931318678 13.426805372746022, 49.124039994544944 13.760324906458644, 48.819275438581634 14.118318695487645 C48.56586203720653 14.379988838034624, 48.31244863583143 14.641658980581603, 47.88277106267322 15.085336352052275 C47.60732759006097 15.335486826043796, 47.33188411744872 15.585637300035316, 46.88623380146357 15.990365125751811 C46.485970322680956 16.30956459862244, 46.08570684389834 16.62876407149307, 45.83375864031554 16.829686059227086 C45.43364746247881 17.10878629635226, 45.033536284642075 17.38788653347743, 44.72967042542153 17.599850202728646 C44.34215650305747 17.834763419750324, 43.95464258069341 18.069676636772, 43.57850609208269 18.297692786591178 C43.16208020235487 18.51494190652867, 42.74565431262705 18.73219102646616, 42.38499602146872 18.9203462259508 C42.05324446666231 19.06720279820338, 41.721492911855904 19.21405937045596, 41.15404460246687 19.465251904266456 C40.659565976800806 19.647224609421873, 40.16508735113475 19.829197314577293, 39.89071007849605 19.930170687224038 C39.473898164502785 20.053878275406856, 39.05708625050952 20.177585863589673, 38.600183762099675 20.313192123819615 C38.24094645373454 20.39518569521144, 37.8817091453694 20.477179266603265, 37.287768702728826 20.61274229681237 C36.91926627565837 20.67231891144212, 36.55076384858793 20.731895526071867, 35.958857895374635 20.827590290288168 C35.50161657232684 20.871699810809442, 35.04437524927905 20.915809331330717, 34.61891211959497 20.956853247757063 C34.13996042680374 20.972212296321963, 33.66100873401251 20.987571344886863, 33.27343750000001 21 C33.27343750000001 21, 33.27343750000001 21, 33.2734375 21 C8.990825357859222 21, -15.291786784281555 21, -33.27343749999999 21 C-33.70985009366127 20.986005097546865, -34.14626268732254 20.97201019509373, -34.61891211959496 20.956853247757063 C-34.93702998376365 20.926164799993415, -35.25514784793235 20.895476352229768, -35.95885789537463 20.827590290288168 C-36.39330841839888 20.757351698939733, -36.827758941423134 20.687113107591294, -37.28776870272882 20.61274229681237 C-37.81205049307104 20.493078399425173, -38.33633228341326 20.373414502037978, -38.60018376209965 20.31319212381962 C-38.8698720387999 20.233150058917637, -39.13956031550015 20.153107994015652, -39.89071007849602 19.930170687224045 C-40.1838906951397 19.822277510167257, -40.47707131178339 19.714384333110473, -41.15404460246686 19.465251904266456 C-41.48347308822689 19.319423685769316, -41.81290157398691 19.17359546727218, -42.384996021468716 18.920346225950805 C-42.70803936212924 18.751814722047346, -43.03108270278976 18.583283218143887, -43.57850609208269 18.29769278659118 C-43.89168414378728 18.107842411209344, -44.20486219549186 17.917992035827503, -44.72967042542151 17.59985020272866 C-45.06885175435646 17.363251990586722, -45.408033083291414 17.126653778444783, -45.83375864031554 16.82968605922709 C-46.13468684052878 16.589703827592754, -46.43561504074202 16.349721595958417, -46.886233801463554 15.990365125751827 C-47.16525666955255 15.73696393949394, -47.44427953764155 15.483562753236054, -47.88277106267321 15.08533635205229 C-48.25118761713132 14.704916012012637, -48.61960417158944 14.324495671972985, -48.81927543858163 14.118318695487652 C-49.122849846039465 13.761722922614545, -49.4264242534973 13.405127149741439, -49.69189863182862 13.093285839033408 C-49.91055484062851 12.800306439231978, -50.12921104942839 12.507327039430548, -50.497054846536074 12.01444986256557 C-50.786149418122804 11.570322967846268, -51.07524398970953 11.126196073126968, -51.23143552311226 10.886243934521037 C-51.4686724176388 10.465005805448655, -51.70590931216534 10.043767676376273, -51.892022933833005 9.713304095057543 C-52.08761366323037 9.30715576049272, -52.283204392627745 8.901007425927894, -52.476102583332064 8.500450205570278 C-52.60680321128912 8.177617127591612, -52.73750383924617 7.854784049612944, -52.98127436304496 7.252666142847472 C-53.123833235876006 6.823301531552172, -53.26639210870705 6.3939369202568725, -53.40546241376987 5.975079319251681 C-53.53594049562255 5.477509843589035, -53.66641857747523 4.979940367926388, -53.74692365581829 4.672939613082607 C-53.806366880649925 4.36771121690221, -53.86581010548155 4.0624828207218115, -54.00425495170345 3.351597795700974 C-54.06697139951938 2.865181411204052, -54.12968784733531 2.3787650267071294, -54.17639887193316 2.016483544061333 C-54.20639855565168 1.54921425483651, -54.2363982393702 1.081944965611687, -54.262648040214444 0.6730831290047611 C-54.262648040214444 0.17148471410723576, -54.262648040214444 -0.33011370079028957, -54.262648040214444 -0.6730831290047509 C-54.243446712230615 -0.9721593113858771, -54.224245384246785 -1.2712354937670034, -54.17639887193316 -2.016483544061304 C-54.11631308810709 -2.482497018136228, -54.05622730428103 -2.9485104922111516, -54.00425495170346 -3.3515977957009637 C-53.94430850100163 -3.6594101503679886, -53.884362050299806 -3.9672225050350134, -53.74692365581829 -4.6729396130825975 C-53.62370573532981 -5.142822946889751, -53.50048781484132 -5.612706280696904, -53.405462413769875 -5.975079319251671 C-53.26780396928247 -6.3896846211531555, -53.13014552479506 -6.80428992305464, -52.981274363044975 -7.2526661428474455 C-52.82922411491655 -7.628233195416222, -52.677173866788124 -8.003800247984998, -52.476102583332064 -8.500450205570267 C-52.342467806372 -8.777945679254008, -52.20883302941194 -9.05544115293775, -51.892022933833005 -9.713304095057534 C-51.73739441845344 -9.987862681949013, -51.58276590307388 -10.26242126884049, -51.23143552311227 -10.88624393452103 C-51.05980263893897 -11.149918134493815, -50.88816975476566 -11.4135923344666, -50.497054846536074 -12.014449862565563 C-50.23751558891803 -12.362208823260962, -49.977976331299985 -12.70996778395636, -49.691898631828636 -13.0932858390334 C-49.419772543243994 -13.412940627098015, -49.14764645465935 -13.73259541516263, -48.819275438581634 -14.118318695487645 C-48.447983004727064 -14.501708617118224, -48.0766905708725 -14.885098538748805, -47.88277106267323 -15.085336352052268 C-47.65916459595794 -15.288409828820187, -47.43555812924265 -15.491483305588106, -46.886233801463575 -15.99036512575181 C-46.518087860891775 -16.283951716582905, -46.14994192031997 -16.577538307414002, -45.833758640315544 -16.829686059227086 C-45.59679821932447 -16.994979391059164, -45.35983779833339 -17.160272722891243, -44.72967042542153 -17.599850202728646 C-44.30005050489063 -17.860288323281374, -43.870430584359724 -18.1207264438341, -43.5785060920827 -18.297692786591174 C-43.22039534569512 -18.484518933600693, -42.86228459930754 -18.671345080610216, -42.38499602146872 -18.9203462259508 C-42.099810832403065 -19.04658924943211, -41.81462564333741 -19.172832272913414, -41.15404460246687 -19.465251904266452 C-40.83962997777537 -19.580959392569856, -40.52521535308387 -19.696666880873256, -39.89071007849605 -19.930170687224038 C-39.57246083380712 -20.024625392523337, -39.2542115891182 -20.119080097822636, -38.600183762099675 -20.31319212381961 C-38.130235987080596 -20.420454636771886, -37.66028821206152 -20.52771714972416, -37.287768702728826 -20.61274229681237 C-36.921762983631446 -20.671915263059294, -36.55575726453406 -20.731088229306216, -35.95885789537464 -20.827590290288168 C-35.60883363329487 -20.86135670988524, -35.25880937121511 -20.895123129482307, -34.618912119594974 -20.956853247757063 C-34.28904202242787 -20.967431539720017, -33.959171925260776 -20.978009831682975, -33.27343750000001 -21 C-33.27343750000001 -21, -33.27343750000001 -21, -33.2734375 -21" stroke="none" stroke-width="0" fill="#e8eaf6" style="fill:#e8eaf6 !important;stroke:#3f51b5 !important;stroke-width:2px !important"/><path d="M-33.2734375 -21 C-10.801094190371455 -21, 11.67124911925709 -21, 33.2734375 -21 M-33.2734375 -21 C-13.716644262529734 -21, 5.840148974940533 -21, 33.2734375 -21 M33.2734375 -21 C33.2734375 -21, 33.2734375 -21, 33.2734375 -21 M33.2734375 -21 C33.2734375 -21, 33.2734375 -21, 33.2734375 -21 M33.2734375 -21 C33.80284543410706 -20.983022917983217, 34.332253368214126 -20.966045835966437, 34.61891211959497 -20.956853247757063 M33.2734375 -21 C33.78168979048959 -20.983701338297067, 34.289942080979166 -20.967402676594137, 34.61891211959497 -20.956853247757063 M34.61891211959497 -20.956853247757063 C34.97910732755206 -20.92210564924356, 35.339302535509155 -20.887358050730057, 35.95885789537462 -20.82759029028817 M34.61891211959497 -20.956853247757063 C34.97049811545374 -20.92293616958059, 35.32208411131253 -20.88901909140412, 35.95885789537462 -20.82759029028817 M35.95885789537462 -20.82759029028817 C36.323765454132364 -20.768594866088602, 36.688673012890106 -20.709599441889033, 37.28776870272881 -20.612742296812375 M35.95885789537462 -20.82759029028817 C36.41079313120608 -20.75452490616904, 36.862728367037526 -20.68145952204991, 37.28776870272881 -20.612742296812375 M37.28776870272881 -20.612742296812375 C37.64880132330059 -20.53033895712489, 38.009833943872366 -20.447935617437405, 38.60018376209965 -20.31319212381962 M37.28776870272881 -20.612742296812375 C37.646943166857454 -20.53076306920743, 38.006117630986104 -20.448783841602488, 38.60018376209965 -20.31319212381962 M38.60018376209965 -20.31319212381962 C38.95797374130743 -20.207001936068675, 39.315763720515214 -20.10081174831773, 39.890710078496035 -19.93017068722404 M38.60018376209965 -20.31319212381962 C38.96644641126667 -20.204487292098722, 39.33270906043369 -20.09578246037783, 39.890710078496035 -19.93017068722404 M39.890710078496035 -19.93017068722404 C40.328664883528404 -19.76899927056229, 40.76661968856077 -19.60782785390054, 41.154044602466854 -19.465251904266456 M39.890710078496035 -19.93017068722404 C40.15466940400962 -19.833031215421787, 40.4186287295232 -19.73589174361953, 41.154044602466854 -19.465251904266456 M41.154044602466854 -19.465251904266456 C41.47610231024103 -19.32268651053729, 41.79816001801522 -19.180121116808127, 42.38499602146872 -18.9203462259508 M41.154044602466854 -19.465251904266456 C41.55026230586566 -19.28985808035238, 41.946480009264455 -19.114464256438307, 42.38499602146872 -18.9203462259508 M42.38499602146872 -18.9203462259508 C42.84135529487709 -18.68226388532572, 43.297714568285464 -18.44418154470064, 43.57850609208269 -18.29769278659118 M42.38499602146872 -18.9203462259508 C42.67136677741494 -18.770946786002884, 42.957737533361154 -18.621547346054967, 43.57850609208269 -18.29769278659118 M43.57850609208269 -18.29769278659118 C43.89258036410495 -18.107299117185995, 44.206654636127205 -17.916905447780806, 44.72967042542152 -17.599850202728653 M43.57850609208269 -18.29769278659118 C43.93881138123279 -18.079273602919486, 44.29911667038289 -17.86085441924779, 44.72967042542152 -17.599850202728653 M44.72967042542152 -17.599850202728653 C45.051668677648955 -17.375238161054476, 45.373666929876386 -17.150626119380302, 45.83375864031554 -16.82968605922709 M44.72967042542152 -17.599850202728653 C45.10837529419442 -17.335682080142227, 45.48708016296732 -17.071513957555798, 45.83375864031554 -16.82968605922709 M45.83375864031554 -16.82968605922709 C46.20270321286499 -16.53546258064631, 46.571647785414434 -16.241239102065528, 46.886233801463554 -15.990365125751826 M45.83375864031554 -16.82968605922709 C46.109177754999735 -16.610046644476892, 46.38459686968393 -16.390407229726694, 46.886233801463554 -15.990365125751826 M46.886233801463554 -15.990365125751826 C47.25114062413431 -15.658966404307705, 47.616047446805055 -15.327567682863585, 47.882771062673214 -15.08533635205228 M46.886233801463554 -15.990365125751826 C47.151129508117144 -15.749793853725363, 47.41602521477074 -15.509222581698898, 47.882771062673214 -15.08533635205228 M47.882771062673214 -15.08533635205228 C48.1653868091232 -14.79351239065837, 48.44800255557318 -14.501688429264458, 48.81927543858163 -14.118318695487657 M47.882771062673214 -15.08533635205228 C48.10112306090323 -14.859869986847345, 48.31947505913323 -14.63440362164241, 48.81927543858163 -14.118318695487657 M48.81927543858163 -14.118318695487657 C49.133595043365276 -13.749101002416603, 49.44791464814892 -13.379883309345551, 49.69189863182862 -13.093285839033406 M48.81927543858163 -14.118318695487657 C49.13496885126065 -13.747487249490803, 49.450662263939684 -13.37665580349395, 49.69189863182862 -13.093285839033406 M49.69189863182862 -13.093285839033406 C49.891447587795774 -12.8259084173213, 50.09099654376292 -12.558530995609193, 50.497054846536074 -12.014449862565568 M49.69189863182862 -13.093285839033406 C49.96171960687433 -12.731750313668664, 50.23154058192005 -12.37021478830392, 50.497054846536074 -12.014449862565568 M50.497054846536074 -12.014449862565568 C50.68664939422199 -11.723181724055417, 50.8762439419079 -11.431913585545267, 51.23143552311227 -10.886243934521028 M50.497054846536074 -12.014449862565568 C50.66855396293595 -11.75098116581444, 50.840053079335824 -11.487512469063313, 51.23143552311227 -10.886243934521028 M51.23143552311227 -10.886243934521028 C51.3728589144421 -10.635132382543661, 51.51428230577193 -10.384020830566293, 51.892022933833005 -9.713304095057541 M51.23143552311227 -10.886243934521028 C51.41308141980871 -10.563713251294917, 51.59472731650515 -10.241182568068806, 51.892022933833005 -9.713304095057541 M51.892022933833005 -9.713304095057541 C52.1252079476497 -9.229090424507167, 52.358392961466386 -8.744876753956792, 52.476102583332064 -8.500450205570274 M51.892022933833005 -9.713304095057541 C52.08905567218014 -9.304161398054477, 52.28608841052728 -8.895018701051415, 52.476102583332064 -8.500450205570274 M52.476102583332064 -8.500450205570274 C52.644137365043626 -8.08540104601122, 52.81217214675518 -7.670351886452168, 52.98127436304496 -7.25266614284747 M52.476102583332064 -8.500450205570274 C52.59881856238577 -8.197339364755557, 52.72153454143948 -7.894228523940838, 52.98127436304496 -7.25266614284747 M52.98127436304496 -7.25266614284747 C53.102217257415916 -6.888405414635499, 53.22316015178688 -6.524144686423527, 53.40546241376987 -5.975079319251687 M52.98127436304496 -7.25266614284747 C53.080514719830546 -6.953770000012855, 53.17975507661613 -6.65487385717824, 53.40546241376987 -5.975079319251687 M53.40546241376987 -5.975079319251687 C53.51013377588805 -5.575922050639747, 53.61480513800623 -5.176764782027806, 53.74692365581829 -4.672939613082605 M53.40546241376987 -5.975079319251687 C53.48810063406645 -5.659943969629585, 53.570738854363036 -5.344808620007482, 53.74692365581829 -4.672939613082605 M53.74692365581829 -4.672939613082605 C53.838851375683475 -4.200910200505387, 53.93077909554865 -3.7288807879281696, 54.00425495170345 -3.3515977957009717 M53.74692365581829 -4.672939613082605 C53.803775838084086 -4.381015672860724, 53.860628020349886 -4.0890917326388445, 54.00425495170345 -3.3515977957009717 M54.00425495170345 -3.3515977957009717 C54.071010161695966 -2.833857569306238, 54.13776537168848 -2.316117342911504, 54.17639887193316 -2.016483544061321 M54.00425495170345 -3.3515977957009717 C54.047295535923496 -3.017783523814979, 54.09033612014355 -2.6839692519289864, 54.17639887193316 -2.016483544061321 M54.17639887193316 -2.016483544061321 C54.209297536899236 -1.5040602818902649, 54.24219620186532 -0.9916370197192086, 54.262648040214444 -0.6730831290047585 M54.17639887193316 -2.016483544061321 C54.209872557082036 -1.495103878395224, 54.24334624223091 -0.9737242127291268, 54.262648040214444 -0.6730831290047585 M54.262648040214444 -0.6730831290047585 C54.262648040214444 -0.27944131230733027, 54.262648040214444 0.11420050439009799, 54.262648040214444 0.6730831290047534 M54.262648040214444 -0.6730831290047585 C54.262648040214444 -0.32886006995953576, 54.262648040214444 0.015362989085687007, 54.262648040214444 0.6730831290047534 M54.262648040214444 0.6730831290047534 C54.23806920059868 1.0559183957025509, 54.21349036098291 1.438753662400348, 54.17639887193316 2.0164835440613067 M54.262648040214444 0.6730831290047534 C54.23051298605439 1.1736125364964205, 54.198377931894335 1.6741419439880878, 54.17639887193316 2.0164835440613067 M54.17639887193316 2.0164835440613067 C54.134347107155236 2.342628727618682, 54.09229534237731 2.668773911176057, 54.00425495170346 3.351597795700957 M54.17639887193316 2.0164835440613067 C54.135043170395406 2.3372301985811847, 54.093687468857645 2.6579768531010632, 54.00425495170346 3.351597795700957 M54.00425495170346 3.351597795700957 C53.94747180263344 3.643167265052691, 53.89068865356342 3.9347367344044244, 53.74692365581829 4.6729396130826 M54.00425495170346 3.351597795700957 C53.91575196744038 3.806041914779529, 53.82724898317729 4.2604860338581005, 53.74692365581829 4.6729396130826 M53.74692365581829 4.6729396130826 C53.623048396790544 5.145329663632288, 53.499173137762796 5.617719714181976, 53.405462413769875 5.975079319251673 M53.74692365581829 4.6729396130826 C53.64839508392344 5.048671760270861, 53.549866512028586 5.424403907459122, 53.405462413769875 5.975079319251673 M53.405462413769875 5.975079319251673 C53.288734872494636 6.326644075564665, 53.17200733121939 6.678208831877656, 52.981274363044975 7.252666142847456 M53.405462413769875 5.975079319251673 C53.24856980269886 6.447614866354723, 53.091677191627845 6.920150413457773, 52.981274363044975 7.252666142847456 M52.981274363044975 7.252666142847456 C52.86591880003587 7.537596613728024, 52.750563237026775 7.82252708460859, 52.476102583332064 8.500450205570269 M52.981274363044975 7.252666142847456 C52.83252534950648 7.620079082154062, 52.68377633596799 7.987492021460668, 52.476102583332064 8.500450205570269 M52.476102583332064 8.500450205570269 C52.27091750610909 8.926521408681113, 52.06573242888612 9.352592611791957, 51.892022933833005 9.713304095057536 M52.476102583332064 8.500450205570269 C52.32796922900134 8.80805228538405, 52.179835874670616 9.11565436519783, 51.892022933833005 9.713304095057536 M51.892022933833005 9.713304095057536 C51.74450550896527 9.97523622066926, 51.59698808409753 10.237168346280985, 51.23143552311227 10.886243934521024 M51.892022933833005 9.713304095057536 C51.69859788434043 10.05674985684174, 51.505172834847855 10.400195618625947, 51.23143552311227 10.886243934521024 M51.23143552311227 10.886243934521024 C51.01626167297861 11.216808750595364, 50.801087822844956 11.547373566669702, 50.497054846536074 12.014449862565556 M51.23143552311227 10.886243934521024 C50.98723171407196 11.26140656311144, 50.743027905031646 11.636569191701854, 50.497054846536074 12.014449862565556 M50.497054846536074 12.014449862565556 C50.325455001503855 12.244378021841248, 50.15385515647163 12.474306181116942, 49.69189863182863 13.0932858390334 M50.497054846536074 12.014449862565556 C50.266299217106265 12.323641383731193, 50.03554358767646 12.632832904896828, 49.69189863182863 13.0932858390334 M49.69189863182863 13.0932858390334 C49.45919070994143 13.366637805537971, 49.226482788054234 13.639989772042542, 48.819275438581634 14.118318695487645 M49.69189863182863 13.0932858390334 C49.36038316346977 13.482702771932251, 49.02886769511092 13.872119704831102, 48.819275438581634 14.118318695487645 M48.819275438581634 14.118318695487645 C48.51684572685709 14.430602202784343, 48.21441601513255 14.74288571008104, 47.88277106267322 15.085336352052275 M48.819275438581634 14.118318695487645 C48.63040742936087 14.313340421360017, 48.44153942014011 14.50836214723239, 47.88277106267322 15.085336352052275 M47.88277106267322 15.085336352052275 C47.534890376285986 15.401272387010588, 47.18700968989875 15.7172084219689, 46.88623380146357 15.990365125751811 M47.88277106267322 15.085336352052275 C47.655816815583165 15.291450194379141, 47.42886256849311 15.49756403670601, 46.88623380146357 15.990365125751811 M46.88623380146357 15.990365125751811 C46.5890321266788 16.22737555252394, 46.29183045189404 16.464385979296075, 45.83375864031554 16.829686059227086 M46.88623380146357 15.990365125751811 C46.51422553982103 16.287031814856142, 46.14221727817848 16.583698503960477, 45.83375864031554 16.829686059227086 M45.83375864031554 16.829686059227086 C45.494404727873835 17.066404658152315, 45.15505081543213 17.303123257077548, 44.72967042542153 17.599850202728646 M45.83375864031554 16.829686059227086 C45.59984103349498 16.99285685561511, 45.365923426674435 17.156027652003132, 44.72967042542153 17.599850202728646 M44.72967042542153 17.599850202728646 C44.495356890315016 17.74189244468939, 44.2610433552085 17.883934686650136, 43.57850609208269 18.297692786591178 M44.72967042542153 17.599850202728646 C44.45344498266331 17.767299689409565, 44.17721953990508 17.934749176090484, 43.57850609208269 18.297692786591178 M43.57850609208269 18.297692786591178 C43.31834207650038 18.433420186877466, 43.05817806091806 18.569147587163755, 42.38499602146872 18.9203462259508 M43.57850609208269 18.297692786591178 C43.31463122644975 18.435356134971965, 43.050756360816806 18.573019483352752, 42.38499602146872 18.9203462259508 M42.38499602146872 18.9203462259508 C41.9813936644417 19.099009016968125, 41.57779130741467 19.277671807985453, 41.15404460246687 19.465251904266456 M42.38499602146872 18.9203462259508 C41.90577468914256 19.132483294175852, 41.4265533568164 19.344620362400903, 41.15404460246687 19.465251904266456 M41.15404460246687 19.465251904266456 C40.84303841414211 19.579705056479657, 40.53203222581735 19.694158208692855, 39.89071007849605 19.930170687224038 M41.15404460246687 19.465251904266456 C40.83800764819784 19.581556424851037, 40.521970693928814 19.69786094543562, 39.89071007849605 19.930170687224038 M39.89071007849605 19.930170687224038 C39.54550754311642 20.03262498771963, 39.200305007736794 20.135079288215216, 38.600183762099675 20.313192123819615 M39.89071007849605 19.930170687224038 C39.47740580236894 20.05283722690015, 39.064101526241835 20.175503766576256, 38.600183762099675 20.313192123819615 M38.600183762099675 20.313192123819615 C38.295954692648316 20.382630423641675, 37.99172562319696 20.452068723463736, 37.287768702728826 20.61274229681237 M38.600183762099675 20.313192123819615 C38.11678556107841 20.423524608734656, 37.63338736005714 20.533857093649697, 37.287768702728826 20.61274229681237 M37.287768702728826 20.61274229681237 C36.81178481514819 20.68969568044623, 36.33580092756755 20.76664906408009, 35.958857895374635 20.827590290288168 M37.287768702728826 20.61274229681237 C36.87306199722291 20.679788860860032, 36.458355291717 20.746835424907697, 35.958857895374635 20.827590290288168 M35.958857895374635 20.827590290288168 C35.477959195664795 20.87398200948387, 34.99706049595495 20.920373728679575, 34.61891211959497 20.956853247757063 M35.958857895374635 20.827590290288168 C35.559347896704516 20.866130539378805, 35.15983789803439 20.904670788469442, 34.61891211959497 20.956853247757063 M34.61891211959497 20.956853247757063 C34.185041545872885 20.97076663257849, 33.7511709721508 20.984680017399917, 33.27343750000001 21 M34.61891211959497 20.956853247757063 C34.20490694115861 20.970129588017322, 33.79090176272226 20.983405928277584, 33.27343750000001 21 M33.27343750000001 21 C33.27343750000001 21, 33.2734375 21, 33.2734375 21 M33.27343750000001 21 C33.27343750000001 21, 33.2734375 21, 33.2734375 21 M33.2734375 21 C14.670965867262744 21, -3.931505765474512 21, -33.27343749999999 21 M33.2734375 21 C18.210170096207584 21, 3.1469026924151713 21, -33.27343749999999 21 M-33.27343749999999 21 C-33.75317457363688 20.984615765800033, -34.232911647273774 20.969231531600062, -34.61891211959496 20.956853247757063 M-33.27343749999999 21 C-33.555098191019155 20.99096768985829, -33.83675888203831 20.981935379716585, -34.61891211959496 20.956853247757063 M-34.61891211959496 20.956853247757063 C-34.89460485424309 20.93025750121458, -35.17029758889123 20.9036617546721, -35.95885789537463 20.827590290288168 M-34.61891211959496 20.956853247757063 C-35.056481170890734 20.914641487632338, -35.494050222186516 20.872429727507612, -35.95885789537463 20.827590290288168 M-35.95885789537463 20.827590290288168 C-36.30322990699207 20.771914894094696, -36.64760191860952 20.716239497901224, -37.28776870272882 20.61274229681237 M-35.95885789537463 20.827590290288168 C-36.285519240308744 20.774778217335783, -36.61218058524286 20.7219661443834, -37.28776870272882 20.61274229681237 M-37.28776870272882 20.61274229681237 C-37.7857971950975 20.499070543368855, -38.28382568746619 20.385398789925336, -38.60018376209965 20.31319212381962 M-37.28776870272882 20.61274229681237 C-37.741336941791644 20.50921830605565, -38.19490518085448 20.405694315298927, -38.60018376209965 20.31319212381962 M-38.60018376209965 20.31319212381962 C-39.062121889694716 20.176091312312114, -39.52406001728979 20.03899050080461, -39.89071007849602 19.930170687224045 M-38.60018376209965 20.31319212381962 C-38.9060148991254 20.22242304769077, -39.211846036151165 20.131653971561924, -39.89071007849602 19.930170687224045 M-39.89071007849602 19.930170687224045 C-40.35972773320415 19.75756785473978, -40.82874538791229 19.584965022255513, -41.15404460246686 19.465251904266456 M-39.89071007849602 19.930170687224045 C-40.18868542853123 19.820513003957146, -40.486660778566446 19.71085532069025, -41.15404460246686 19.465251904266456 M-41.15404460246686 19.465251904266456 C-41.490251233217634 19.31642320204844, -41.82645786396841 19.167594499830425, -42.384996021468716 18.920346225950805 M-41.15404460246686 19.465251904266456 C-41.64631297286296 19.24733929931448, -42.138581343259055 19.029426694362506, -42.384996021468716 18.920346225950805 M-42.384996021468716 18.920346225950805 C-42.73913706370756 18.735591071052966, -43.0932781059464 18.550835916155123, -43.57850609208269 18.29769278659118 M-42.384996021468716 18.920346225950805 C-42.769851815897965 18.719567204508966, -43.15470761032722 18.518788183067127, -43.57850609208269 18.29769278659118 M-43.57850609208269 18.29769278659118 C-44.02523974062553 18.02688022354619, -44.47197338916837 17.756067660501195, -44.72967042542151 17.59985020272866 M-43.57850609208269 18.29769278659118 C-43.86533080744426 18.123817958569877, -44.15215552280582 17.949943130548572, -44.72967042542151 17.59985020272866 M-44.72967042542151 17.59985020272866 C-45.16751797012989 17.294426709654818, -45.605365514838276 16.989003216580976, -45.83375864031554 16.82968605922709 M-44.72967042542151 17.59985020272866 C-45.133997277870215 17.317809293487787, -45.53832413031893 17.03576838424691, -45.83375864031554 16.82968605922709 M-45.83375864031554 16.82968605922709 C-46.242268619798 16.503910221496934, -46.65077859928045 16.17813438376678, -46.886233801463554 15.990365125751827 M-45.83375864031554 16.82968605922709 C-46.22878710484053 16.514661370917334, -46.62381556936552 16.19963668260758, -46.886233801463554 15.990365125751827 M-46.886233801463554 15.990365125751827 C-47.092251951979165 15.803264892395108, -47.298270102494776 15.61616465903839, -47.88277106267321 15.08533635205229 M-46.886233801463554 15.990365125751827 C-47.17080245766193 15.731927401466518, -47.4553711138603 15.473489677181206, -47.88277106267321 15.08533635205229 M-47.88277106267321 15.08533635205229 C-48.170706059878746 14.78801982753466, -48.45864105708428 14.49070330301703, -48.81927543858163 14.118318695487652 M-47.88277106267321 15.08533635205229 C-48.08086889085923 14.880784080316058, -48.27896671904525 14.676231808579825, -48.81927543858163 14.118318695487652 M-48.81927543858163 14.118318695487652 C-49.130988710083265 13.752162549794214, -49.4427019815849 13.386006404100778, -49.69189863182862 13.093285839033408 M-48.81927543858163 14.118318695487652 C-49.1007760265673 13.787652087002458, -49.38227661455297 13.456985478517264, -49.69189863182862 13.093285839033408 M-49.69189863182862 13.093285839033408 C-49.94869545831265 12.749201486216984, -50.20549228479667 12.405117133400559, -50.497054846536074 12.01444986256557 M-49.69189863182862 13.093285839033408 C-49.85425373543709 12.875744791052272, -50.01660883904557 12.658203743071136, -50.497054846536074 12.01444986256557 M-50.497054846536074 12.01444986256557 C-50.71343199630562 11.682036455119308, -50.929809146075165 11.349623047673044, -51.23143552311226 10.886243934521037 M-50.497054846536074 12.01444986256557 C-50.777034012496216 11.584326678717844, -51.05701317845636 11.154203494870115, -51.23143552311226 10.886243934521037 M-51.23143552311226 10.886243934521037 C-51.465872574742356 10.469977210026125, -51.70030962637245 10.053710485531212, -51.892022933833005 9.713304095057543 M-51.23143552311226 10.886243934521037 C-51.38309901202335 10.61695005236583, -51.534762500934434 10.347656170210623, -51.892022933833005 9.713304095057543 M-51.892022933833005 9.713304095057543 C-52.01878085621717 9.450088557041772, -52.145538778601335 9.186873019026002, -52.476102583332064 8.500450205570278 M-51.892022933833005 9.713304095057543 C-52.11714483404348 9.245833652433474, -52.342266734253954 8.778363209809406, -52.476102583332064 8.500450205570278 M-52.476102583332064 8.500450205570278 C-52.58546925169054 8.230312420264141, -52.69483592004902 7.9601746349580065, -52.98127436304496 7.252666142847472 M-52.476102583332064 8.500450205570278 C-52.596939524371074 8.20198062498059, -52.71777646541009 7.903511044390905, -52.98127436304496 7.252666142847472 M-52.98127436304496 7.252666142847472 C-53.068623897571854 6.989583262110794, -53.15597343209875 6.726500381374116, -53.40546241376987 5.975079319251681 M-52.98127436304496 7.252666142847472 C-53.13580896232023 6.7872325515750385, -53.29034356159551 6.321798960302605, -53.40546241376987 5.975079319251681 M-53.40546241376987 5.975079319251681 C-53.49640895474766 5.628260742023187, -53.58735549572544 5.281442164794692, -53.74692365581829 4.672939613082607 M-53.40546241376987 5.975079319251681 C-53.4878874502644 5.6607569318612425, -53.57031248675893 5.346434544470805, -53.74692365581829 4.672939613082607 M-53.74692365581829 4.672939613082607 C-53.83593544055945 4.2158829110841305, -53.924947225300606 3.758826209085654, -54.00425495170345 3.351597795700974 M-53.74692365581829 4.672939613082607 C-53.80218192321829 4.389200088822582, -53.857440190618284 4.1054605645625575, -54.00425495170345 3.351597795700974 M-54.00425495170345 3.351597795700974 C-54.05917708596613 2.9256325679617716, -54.11409922022881 2.499667340222569, -54.17639887193316 2.016483544061333 M-54.00425495170345 3.351597795700974 C-54.06061406404711 2.914487649729113, -54.116973176390765 2.477377503757252, -54.17639887193316 2.016483544061333 M-54.17639887193316 2.016483544061333 C-54.194085932551396 1.7409932981939102, -54.21177299316964 1.4655030523264876, -54.262648040214444 0.6730831290047611 M-54.17639887193316 2.016483544061333 C-54.205517983879176 1.5629298709780037, -54.23463709582519 1.1093761978946746, -54.262648040214444 0.6730831290047611 M-54.262648040214444 0.6730831290047611 C-54.262648040214444 0.27175969624114216, -54.262648040214444 -0.12956373652247677, -54.262648040214444 -0.6730831290047509 M-54.262648040214444 0.6730831290047611 C-54.262648040214444 0.13609734275030283, -54.262648040214444 -0.4008884435041554, -54.262648040214444 -0.6730831290047509 M-54.262648040214444 -0.6730831290047509 C-54.245209155664426 -0.9447078322854914, -54.22777027111441 -1.2163325355662318, -54.17639887193316 -2.016483544061304 M-54.262648040214444 -0.6730831290047509 C-54.23201809455537 -1.1501692566919626, -54.20138814889629 -1.6272553843791744, -54.17639887193316 -2.016483544061304 M-54.17639887193316 -2.016483544061304 C-54.12279415713976 -2.4322311265506995, -54.069189442346364 -2.847978709040095, -54.00425495170346 -3.3515977957009637 M-54.17639887193316 -2.016483544061304 C-54.127806264129326 -2.393358214492092, -54.07921365632549 -2.7702328849228803, -54.00425495170346 -3.3515977957009637 M-54.00425495170346 -3.3515977957009637 C-53.919066396380494 -3.7890230226768407, -53.83387784105752 -4.226448249652718, -53.74692365581829 -4.6729396130825975 M-54.00425495170346 -3.3515977957009637 C-53.91882336187243 -3.790270953510404, -53.83339177204139 -4.228944111319844, -53.74692365581829 -4.6729396130825975 M-53.74692365581829 -4.6729396130825975 C-53.63998674136712 -5.080736414636841, -53.533049826915935 -5.488533216191086, -53.405462413769875 -5.975079319251671 M-53.74692365581829 -4.6729396130825975 C-53.66974917855816 -4.967239342505502, -53.592574701298034 -5.261539071928406, -53.405462413769875 -5.975079319251671 M-53.405462413769875 -5.975079319251671 C-53.302840634809776 -6.284159766919467, -53.20021885584968 -6.593240214587263, -52.981274363044975 -7.2526661428474455 M-53.405462413769875 -5.975079319251671 C-53.31907971660375 -6.23525023990232, -53.23269701943763 -6.495421160552969, -52.981274363044975 -7.2526661428474455 M-52.981274363044975 -7.2526661428474455 C-52.8581992254358 -7.556664112238023, -52.73512408782662 -7.8606620816286, -52.476102583332064 -8.500450205570267 M-52.981274363044975 -7.2526661428474455 C-52.822579269627774 -7.644646091748834, -52.66388417621058 -8.036626040650223, -52.476102583332064 -8.500450205570267 M-52.476102583332064 -8.500450205570267 C-52.347592397280245 -8.767304356584367, -52.21908221122842 -9.034158507598464, -51.892022933833005 -9.713304095057534 M-52.476102583332064 -8.500450205570267 C-52.284038179230464 -8.899276050207158, -52.091973775128864 -9.298101894844049, -51.892022933833005 -9.713304095057534 M-51.892022933833005 -9.713304095057534 C-51.75275154527405 -9.9605945482013, -51.6134801567151 -10.207885001345064, -51.23143552311227 -10.88624393452103 M-51.892022933833005 -9.713304095057534 C-51.652260007306374 -10.139027449734561, -51.412497080779744 -10.56475080441159, -51.23143552311227 -10.88624393452103 M-51.23143552311227 -10.88624393452103 C-50.989039284367614 -11.258629649736736, -50.74664304562295 -11.631015364952441, -50.497054846536074 -12.014449862565563 M-51.23143552311227 -10.88624393452103 C-50.995768390131865 -11.248291936264941, -50.760101257151454 -11.610339938008853, -50.497054846536074 -12.014449862565563 M-50.497054846536074 -12.014449862565563 C-50.20570190569781 -12.404836260489894, -49.91434896485954 -12.795222658414223, -49.691898631828636 -13.0932858390334 M-50.497054846536074 -12.014449862565563 C-50.33371425926243 -12.233311368878622, -50.17037367198879 -12.45217287519168, -49.691898631828636 -13.0932858390334 M-49.691898631828636 -13.0932858390334 C-49.413377972322536 -13.420452053963748, -49.13485731281644 -13.747618268894094, -48.819275438581634 -14.118318695487645 M-49.691898631828636 -13.0932858390334 C-49.459388627418335 -13.366405320407784, -49.226878623008034 -13.639524801782166, -48.819275438581634 -14.118318695487645 M-48.819275438581634 -14.118318695487645 C-48.58116286660322 -14.364189475461085, -48.34305029462481 -14.610060255434528, -47.88277106267323 -15.085336352052268 M-48.819275438581634 -14.118318695487645 C-48.601210303394915 -14.34348885104849, -48.3831451682082 -14.568659006609332, -47.88277106267323 -15.085336352052268 M-47.88277106267323 -15.085336352052268 C-47.50263753713012 -15.430563562168585, -47.12250401158701 -15.775790772284902, -46.886233801463575 -15.99036512575181 M-47.88277106267323 -15.085336352052268 C-47.569481409334955 -15.369857726024097, -47.256191755996674 -15.654379099995927, -46.886233801463575 -15.99036512575181 M-46.886233801463575 -15.99036512575181 C-46.546620895580965 -16.261197380714215, -46.20700798969836 -16.53202963567662, -45.833758640315544 -16.829686059227086 M-46.886233801463575 -15.99036512575181 C-46.6665788026682 -16.165534142026118, -46.44692380387283 -16.34070315830043, -45.833758640315544 -16.829686059227086 M-45.833758640315544 -16.829686059227086 C-45.39585422201606 -17.135149224856058, -44.95794980371659 -17.440612390485033, -44.72967042542153 -17.599850202728646 M-45.833758640315544 -16.829686059227086 C-45.569191008348696 -17.01423698633896, -45.30462337638184 -17.198787913450836, -44.72967042542153 -17.599850202728646 M-44.72967042542153 -17.599850202728646 C-44.275278478074455 -17.875305271513927, -43.82088653072738 -18.150760340299204, -43.5785060920827 -18.297692786591174 M-44.72967042542153 -17.599850202728646 C-44.27073287108551 -17.87806084518358, -43.811795316749475 -18.156271487638517, -43.5785060920827 -18.297692786591174 M-43.5785060920827 -18.297692786591174 C-43.29019859275007 -18.448102624323237, -43.00189109341745 -18.5985124620553, -42.38499602146872 -18.9203462259508 M-43.5785060920827 -18.297692786591174 C-43.21597683345765 -18.48682406860479, -42.8534475748326 -18.675955350618406, -42.38499602146872 -18.9203462259508 M-42.38499602146872 -18.9203462259508 C-42.056398367435044 -19.065806659888434, -41.72780071340136 -19.211267093826066, -41.15404460246687 -19.465251904266452 M-42.38499602146872 -18.9203462259508 C-42.04486761355054 -19.070910982585445, -41.70473920563234 -19.22147573922009, -41.15404460246687 -19.465251904266452 M-41.15404460246687 -19.465251904266452 C-40.87217300085722 -19.56898325925133, -40.590301399247565 -19.672714614236202, -39.89071007849605 -19.930170687224038 M-41.15404460246687 -19.465251904266452 C-40.66670005174622 -19.644599203895293, -40.179355501025576 -19.823946503524137, -39.89071007849605 -19.930170687224038 M-39.89071007849605 -19.930170687224038 C-39.582650549673794 -20.02160113834102, -39.27459102085153 -20.113031589458, -38.600183762099675 -20.31319212381961 M-39.89071007849605 -19.930170687224038 C-39.505555963742026 -20.044482406767827, -39.120401848987996 -20.15879412631162, -38.600183762099675 -20.31319212381961 M-38.600183762099675 -20.31319212381961 C-38.28366767539269 -20.385434855149988, -37.96715158868571 -20.457677586480365, -37.287768702728826 -20.61274229681237 M-38.600183762099675 -20.31319212381961 C-38.313412159810845 -20.378645870682444, -38.026640557522015 -20.44409961754528, -37.287768702728826 -20.61274229681237 M-37.287768702728826 -20.61274229681237 C-36.99652216241094 -20.659828778800314, -36.70527562209306 -20.706915260788257, -35.95885789537464 -20.827590290288168 M-37.287768702728826 -20.61274229681237 C-36.94440378866916 -20.66825487328286, -36.60103887460951 -20.723767449753346, -35.95885789537464 -20.827590290288168 M-35.95885789537464 -20.827590290288168 C-35.46325830915716 -20.87540018632486, -34.967658722939674 -20.923210082361557, -34.618912119594974 -20.956853247757063 M-35.95885789537464 -20.827590290288168 C-35.66130843565109 -20.856294528812118, -35.36375897592754 -20.884998767336068, -34.618912119594974 -20.956853247757063 M-34.618912119594974 -20.956853247757063 C-34.09781549517294 -20.97356380224923, -33.57671887075091 -20.990274356741395, -33.27343750000001 -21 M-34.618912119594974 -20.956853247757063 C-34.17598507934886 -20.971057055832574, -33.73305803910275 -20.98526086390808, -33.27343750000001 -21 M-33.27343750000001 -21 C-33.27343750000001 -21, -33.27343750000001 -21, -33.2734375 -21 M-33.27343750000001 -21 C-33.27343750000001 -21, -33.2734375 -21, -33.2734375 -21" stroke="#3f51b5" stroke-width="2" fill="none" stroke-dasharray="0 0" style="fill:#e8eaf6 !important;stroke:#3f51b5 !important;stroke-width:2px !important"/></g><g class="label" style="color:#1a237e !important" transform="translate(-41.5234375, -13.5)"><rect/><foreignObject width="83.046875" height="27"><div style="color: rgb(26, 35, 126) !important; display: table-cell; white-space: nowrap; line-height: 1.5; max-width: 200px; text-align: center;" xmlns="http://www.w3.org/1999/xhtml"><span style="color:#1a237e !important" class="nodeLabel"><p>User Input</p></span></div></foreignObject></g></g><g class="node default" id="flowchart-Mode-1" transform="translate(343.984375, 200.703125)"><polygon points="100.703125,0 201.40625,-100.703125 100.703125,-201.40625 0,-100.703125" class="label-container" transform="translate(-100.203125, 100.703125)"/><g class="label" style="" transform="translate(-72.203125, -13.5)"><rect/><foreignObject width="144.40625" height="27"><div xmlns="http://www.w3.org/1999/xhtml" style="display: table-cell; white-space: nowrap; line-height: 1.5; max-width: 200px; text-align: center;"><span class="nodeLabel"><p>Auto-detect Mode</p></span></div></foreignObject></g></g><g class="node default green" id="flowchart-A-3" transform="translate(94.1171875, 420.40625)"><rect class="basic label-container" style="fill:#e8f5e9 !important;stroke:#388e3c !important;stroke-width:2px !important" x="-86.1171875" y="-42" width="172.234375" height="84"/><g class="label" style="color:#1b5e20 !important" transform="translate(-56.1171875, -27)"><rect/><foreignObject width="112.234375" height="54"><div style="color: rgb(27, 94, 32) !important; display: table-cell; white-space: nowrap; line-height: 1.5; max-width: 200px; text-align: center;" xmlns="http://www.w3.org/1999/xhtml"><span style="color:#1b5e20 !important" class="nodeLabel"><p>Mode A<br />Free response</p></span></div></foreignObject></g></g><g class="node default orange" id="flowchart-B-5" transform="translate(343.984375, 420.40625)"><rect class="basic label-container" style="fill:#fff8e1 !important;stroke:#ef6c00 !important;stroke-width:2px !important" x="-113.75" y="-42" width="227.5" height="84"/><g class="label" style="color:#e65100 !important" transform="translate(-83.75, -27)"><rect/><foreignObject width="167.5" height="54"><div style="color: rgb(230, 81, 0) !important; display: table-cell; white-space: nowrap; line-height: 1.5; max-width: 200px; text-align: center;" xmlns="http://www.w3.org/1999/xhtml"><span style="color:#e65100 !important" class="nodeLabel"><p>Mode B<br />Verify before answer</p></span></div></foreignObject></g></g><g class="node default blue" id="flowchart-C-7" transform="translate(566.96875, 420.40625)"><rect class="basic label-container" style="fill:#e3f2fd !important;stroke:#1565c0 !important;stroke-width:2px !important" x="-59.234375" y="-28.5" width="118.46875" height="57"/><g class="label" style="color:#0d47a1 !important" transform="translate(-29.234375, -13.5)"><rect/><foreignObject width="58.46875" height="27"><div style="color: rgb(13, 71, 161) !important; display: table-cell; white-space: nowrap; line-height: 1.5; max-width: 200px; text-align: center;" xmlns="http://www.w3.org/1999/xhtml"><span style="color:#0d47a1 !important" class="nodeLabel"><p>Mode C</p></span></div></foreignObject></g></g><g class="node default gate" id="flowchart-P-9" transform="translate(566.96875, 540.90625)"><rect class="basic label-container" style="fill:#f3e5f5 !important;stroke:#7b1fa2 !important;stroke-width:2px !important" x="-85.9453125" y="-28.5" width="171.890625" height="57"/><g class="label" style="color:#4a148c !important" transform="translate(-55.9453125, -13.5)"><rect/><foreignObject width="111.890625" height="27"><div style="color: rgb(74, 20, 140) !important; display: table-cell; white-space: nowrap; line-height: 1.5; max-width: 200px; text-align: center;" xmlns="http://www.w3.org/1999/xhtml"><span style="color:#4a148c !important" class="nodeLabel"><p>PLAN → READ</p></span></div></foreignObject></g></g><g class="node default" id="flowchart-Risk-11" transform="translate(566.96875, 676.5390625)"><polygon points="57.1328125,0 114.265625,-57.1328125 57.1328125,-114.265625 0,-57.1328125" class="label-container" transform="translate(-56.6328125, 57.1328125)"/><g class="label" style="" transform="translate(-28.6328125, -13.5)"><rect/><foreignObject width="57.265625" height="27"><div xmlns="http://www.w3.org/1999/xhtml" style="display: table-cell; white-space: nowrap; line-height: 1.5; max-width: 200px; text-align: center;"><span class="nodeLabel"><p>Target?</p></span></div></foreignObject></g></g><g class="node default green" id="flowchart-OK-13" transform="translate(457.3828125, 852.671875)"><rect class="basic label-container" style="fill:#e8f5e9 !important;stroke:#388e3c !important;stroke-width:2px !important" x="-93.3125" y="-28.5" width="186.625" height="57"/><g class="label" style="color:#1b5e20 !important" transform="translate(-63.3125, -13.5)"><rect/><foreignObject width="126.625" height="27"><div style="color: rgb(27, 94, 32) !important; display: table-cell; white-space: nowrap; line-height: 1.5; max-width: 200px; text-align: center;" xmlns="http://www.w3.org/1999/xhtml"><span style="color:#1b5e20 !important" class="nodeLabel"><p>Always advisory</p></span></div></foreignObject></g></g><g class="node default red" id="flowchart-Block-15" transform="translate(676.5546875, 852.671875)"><rect class="basic label-container" style="fill:#fce4ec !important;stroke:#c62828 !important;stroke-width:2px !important" x="-75.859375" y="-42" width="151.71875" height="84"/><g class="label" style="color:#b71c1c !important" transform="translate(-45.859375, -27)"><rect/><foreignObject width="91.71875" height="54"><div style="color: rgb(183, 28, 28) !important; display: table-cell; white-space: nowrap; line-height: 1.5; max-width: 200px; text-align: center;" xmlns="http://www.w3.org/1999/xhtml"><span style="color:#b71c1c !important" class="nodeLabel"><p>Advisory ×2<br />then block</p></span></div></foreignObject></g></g><g class="node default gate" id="flowchart-Do-17" transform="translate(566.96875, 986.671875)"><rect class="basic label-container" style="fill:#f3e5f5 !important;stroke:#7b1fa2 !important;stroke-width:2px !important" x="-130" y="-42" width="260" height="84"/><g class="label" style="color:#4a148c !important" transform="translate(-100, -27)"><rect/><foreignObject width="200" height="54"><div style="color: rgb(74, 20, 140) !important; display: table; white-space: break-spaces; line-height: 1.5; max-width: 200px; text-align: center; width: 200px;" xmlns="http://www.w3.org/1999/xhtml"><span style="color:#4a148c !important" class="nodeLabel"><p>CHANGE → QC → PERSIST</p></span></div></foreignObject></g></g></g></g></g></svg>